<svg xmlns="http://www.w3.org/2000/svg" viewBox="0 0 3000 1448" width="100%" height="100%">
  <path d="M 213.5,140 L 195.5,156 L 195.5,157 L 188.5,164 L 181.5,174 L 168.5,199 L 157.5,238 L 157.5,245 L 153.5,257 L 149.5,274 L 149.5,281 L 148.5,286 L 145.5,293 L 145.5,298 L 141.5,311 L 141.5,318 L 140.5,323 L 137.5,331 L 133.5,350 L 132.5,360 L 129.5,368 L 128.5,377 L 125.5,386 L 125.5,393 L 121.5,405 L 120.5,414 L 117.5,423 L 117.5,430 L 115.5,438 L 113.5,442 L 109.5,459 L 109.5,465 L 105.5,477 L 104.5,486 L 101.5,495 L 101.5,502 L 100.5,507 L 97.5,515 L 93.5,532 L 93.5,538 L 89.5,550 L 88.5,559 L 85.5,568 L 85.5,575 L 81.5,587 L 80.5,596 L 77.5,605 L 77.5,611 L 76.5,616 L 73.5,624 L 69.5,641 L 69.5,648 L 65.5,660 L 64.5,669 L 61.5,678 L 61.5,684 L 57.5,698 L 56.5,708 L 53.5,718 L 53.5,726 L 52.5,731 L 49.5,738 L 48.5,746 L 45.5,754 L 44.5,771 L 46.5,773 L 654.5,773 L 656.5,772 L 658.5,769 L 662.5,757 L 666.5,740 L 666.5,733 L 667.5,728 L 670.5,721 L 671.5,712 L 674.5,703 L 674.5,696 L 678.5,685 L 682.5,669 L 684.5,656 L 683.5,654 L 681.5,653 L 462.5,654 L 252.5,653 L 247.5,649 L 247.5,641 L 250.5,632 L 251.5,622 L 254.5,615 L 258.5,597 L 258.5,590 L 262.5,578 L 266.5,559 L 266.5,552 L 267.5,547 L 270.5,540 L 274.5,521 L 274.5,514 L 277.5,504 L 282.5,499 L 285.5,498 L 633.5,498 L 637.5,496 L 639.5,492 L 641.5,485 L 643.5,470 L 647.5,458 L 650.5,445 L 650.5,439 L 654.5,427 L 655.5,418 L 658.5,409 L 658.5,403 L 662.5,392 L 663.5,382 L 662.5,380 L 660.5,379 L 310.5,379 L 306.5,377 L 304.5,374 L 304.5,371 L 306.5,366 L 306.5,359 L 310.5,348 L 311.5,338 L 314.5,329 L 314.5,322 L 315.5,317 L 318.5,310 L 322.5,293 L 322.5,286 L 326.5,274 L 330.5,257 L 330.5,250 L 331.5,245 L 333.5,241 L 335.5,239 L 340.5,237 L 755.5,237 L 758.5,235 L 760.5,231 L 762.5,223 L 762.5,218 L 763.5,214 L 766.5,208 L 767.5,200 L 770.5,192 L 770.5,187 L 774.5,175 L 778.5,158 L 778.5,152 L 782.5,141 L 786.5,125 L 786.5,122 L 785.5,120 L 782.5,118 L 455.5,119 L 286.5,118 L 258.5,120 L 234.5,128 Z M 1523.5,121 L 1520.5,118 L 1058.5,118 L 1044.5,120 L 1027.5,120 L 1015.5,123 L 1009.5,123 L 1004.5,124 L 992.5,128 L 986.5,128 L 956.5,138 L 947.5,143 L 942.5,144 L 922.5,154 L 894.5,174 L 872.5,196 L 857.5,217 L 851.5,229 L 846.5,236 L 844.5,243 L 839.5,252 L 829.5,283 L 828.5,293 L 825.5,301 L 824.5,307 L 824.5,315 L 822.5,323 L 822.5,357 L 824.5,370 L 826.5,379 L 828.5,383 L 829.5,391 L 832.5,399 L 839.5,414 L 851.5,431 L 866.5,446 L 882.5,457 L 917.5,474 L 932.5,478 L 935.5,480 L 953.5,485 L 960.5,485 L 965.5,486 L 973.5,489 L 990.5,493 L 1001.5,493 L 1018.5,497 L 1026.5,498 L 1035.5,498 L 1043.5,500 L 1054.5,501 L 1068.5,501 L 1076.5,502 L 1088.5,505 L 1101.5,505 L 1111.5,506 L 1127.5,509 L 1148.5,509 L 1160.5,510 L 1174.5,513 L 1195.5,514 L 1210.5,517 L 1225.5,517 L 1245.5,521 L 1259.5,525 L 1267.5,529 L 1275.5,535 L 1279.5,539 L 1284.5,546 L 1288.5,558 L 1289.5,565 L 1289.5,582 L 1288.5,588 L 1284.5,602 L 1279.5,612 L 1271.5,623 L 1260.5,633 L 1252.5,638 L 1234.5,646 L 1227.5,648 L 1220.5,648 L 1211.5,651 L 1194.5,653 L 769.5,653 L 765.5,657 L 765.5,662 L 761.5,673 L 760.5,681 L 757.5,689 L 757.5,695 L 756.5,700 L 753.5,707 L 752.5,716 L 749.5,725 L 749.5,731 L 745.5,742 L 741.5,758 L 741.5,764 L 740.5,765 L 740.5,770 L 741.5,772 L 769.5,774 L 1242.5,773 L 1250.5,772 L 1256.5,770 L 1268.5,769 L 1280.5,765 L 1285.5,765 L 1300.5,761 L 1306.5,758 L 1316.5,756 L 1326.5,751 L 1336.5,748 L 1354.5,739 L 1359.5,735 L 1364.5,733 L 1373.5,727 L 1390.5,714 L 1404.5,700 L 1415.5,687 L 1432.5,660 L 1440.5,643 L 1449.5,618 L 1451.5,607 L 1454.5,600 L 1458.5,582 L 1458.5,570 L 1459.5,559 L 1461.5,551 L 1461.5,522 L 1459.5,516 L 1458.5,509 L 1458.5,500 L 1453.5,483 L 1446.5,467 L 1438.5,454 L 1425.5,439 L 1411.5,427 L 1392.5,416 L 1379.5,410 L 1370.5,407 L 1343.5,400 L 1336.5,400 L 1317.5,395 L 1311.5,395 L 1300.5,392 L 1289.5,392 L 1282.5,391 L 1272.5,388 L 1256.5,387 L 1243.5,384 L 1225.5,384 L 1204.5,380 L 1180.5,379 L 1172.5,377 L 1162.5,376 L 1141.5,376 L 1131.5,375 L 1119.5,372 L 1109.5,372 L 1100.5,371 L 1086.5,368 L 1071.5,368 L 1064.5,367 L 1055.5,364 L 1049.5,364 L 1043.5,363 L 1034.5,360 L 1029.5,360 L 1013.5,352 L 1004.5,343 L 998.5,332 L 994.5,316 L 995.5,306 L 999.5,290 L 1004.5,278 L 1010.5,269 L 1021.5,258 L 1028.5,253 L 1039.5,247 L 1058.5,241 L 1078.5,237 L 1493.5,237 L 1497.5,234 L 1499.5,223 L 1502.5,217 L 1506.5,200 L 1506.5,194 L 1514.5,166 L 1514.5,159 L 1518.5,148 L 1522.5,133 Z M 2475.5,119 L 2472.5,123 L 2469.5,133 L 2469.5,139 L 2468.5,144 L 2465.5,152 L 2461.5,170 L 2461.5,177 L 2457.5,188 L 2456.5,198 L 2453.5,207 L 2453.5,214 L 2449.5,225 L 2448.5,234 L 2445.5,243 L 2445.5,250 L 2444.5,255 L 2441.5,263 L 2437.5,280 L 2437.5,286 L 2436.5,291 L 2433.5,299 L 2432.5,308 L 2429.5,317 L 2429.5,323 L 2421.5,354 L 2421.5,361 L 2420.5,366 L 2417.5,374 L 2416.5,382 L 2413.5,390 L 2413.5,397 L 2409.5,409 L 2405.5,427 L 2405.5,434 L 2404.5,439 L 2401.5,447 L 2397.5,464 L 2397.5,471 L 2389.5,499 L 2389.5,506 L 2385.5,518 L 2384.5,527 L 2381.5,536 L 2381.5,543 L 2376.5,559 L 2373.5,572 L 2373.5,578 L 2372.5,583 L 2369.5,591 L 2365.5,608 L 2365.5,615 L 2361.5,629 L 2360.5,638 L 2357.5,647 L 2357.5,654 L 2352.5,669 L 2349.5,683 L 2349.5,690 L 2348.5,695 L 2345.5,702 L 2345.5,707 L 2341.5,721 L 2341.5,727 L 2340.5,732 L 2337.5,740 L 2336.5,749 L 2333.5,758 L 2332.5,770 L 2333.5,772 L 2925.5,773 L 2927.5,772 L 2930.5,766 L 2930.5,759 L 2934.5,748 L 2938.5,731 L 2938.5,725 L 2939.5,720 L 2942.5,713 L 2943.5,704 L 2946.5,696 L 2946.5,689 L 2947.5,684 L 2950.5,677 L 2954.5,661 L 2954.5,657 L 2951.5,653 L 2548.5,653 L 2545.5,652 L 2542.5,649 L 2542.5,640 L 2543.5,635 L 2546.5,627 L 2546.5,620 L 2550.5,608 L 2551.5,598 L 2554.5,589 L 2554.5,583 L 2555.5,578 L 2562.5,554 L 2562.5,546 L 2563.5,541 L 2566.5,534 L 2566.5,529 L 2570.5,516 L 2570.5,508 L 2571.5,503 L 2574.5,495 L 2578.5,478 L 2578.5,471 L 2579.5,466 L 2582.5,459 L 2583.5,450 L 2586.5,441 L 2586.5,434 L 2587.5,429 L 2590.5,421 L 2594.5,404 L 2594.5,397 L 2595.5,392 L 2598.5,385 L 2599.5,376 L 2602.5,367 L 2602.5,361 L 2603.5,356 L 2606.5,349 L 2607.5,340 L 2610.5,331 L 2610.5,325 L 2611.5,320 L 2614.5,313 L 2615.5,303 L 2618.5,294 L 2618.5,287 L 2622.5,276 L 2626.5,259 L 2626.5,252 L 2627.5,247 L 2630.5,239 L 2631.5,230 L 2634.5,221 L 2634.5,214 L 2635.5,209 L 2638.5,202 L 2639.5,193 L 2642.5,184 L 2642.5,178 L 2643.5,173 L 2646.5,165 L 2647.5,156 L 2650.5,147 L 2650.5,140 L 2651.5,135 L 2654.5,128 L 2653.5,119 L 2651.5,118 L 2488.5,118 Z" fill="#FFFFFF" fill-rule="evenodd" />
  <path d="M 2239.5,182 L 2220.5,166 L 2203.5,154 L 2186.5,144 L 2168.5,135 L 2161.5,133 L 2154.5,129 L 2146.5,127 L 2138.5,123 L 2129.5,120 L 2118.5,118 L 2111.5,115 L 2100.5,112 L 2084.5,110 L 2074.5,107 L 2057.5,104 L 2046.5,103 L 2033.5,103 L 2021.5,102 L 2011.5,100 L 1941.5,100 L 1920.5,103 L 1905.5,103 L 1894.5,104 L 1871.5,108 L 1861.5,111 L 1854.5,111 L 1836.5,115 L 1825.5,119 L 1817.5,120 L 1807.5,123 L 1801.5,126 L 1794.5,127 L 1783.5,131 L 1778.5,134 L 1765.5,138 L 1732.5,154 L 1721.5,160 L 1683.5,185 L 1666.5,198 L 1649.5,213 L 1626.5,236 L 1611.5,253 L 1593.5,276 L 1587.5,286 L 1581.5,293 L 1567.5,317 L 1550.5,351 L 1546.5,364 L 1542.5,372 L 1534.5,395 L 1532.5,407 L 1525.5,430 L 1524.5,436 L 1524.5,444 L 1523.5,450 L 1521.5,455 L 1520.5,464 L 1520.5,476 L 1518.5,487 L 1518.5,524 L 1520.5,534 L 1520.5,546 L 1521.5,554 L 1524.5,563 L 1524.5,570 L 1534.5,609 L 1541.5,626 L 1551.5,647 L 1568.5,675 L 1577.5,685 L 1581.5,691 L 1608.5,718 L 1613.5,722 L 1638.5,739 L 1645.5,742 L 1652.5,747 L 1672.5,757 L 1689.5,764 L 1707.5,770 L 1722.5,774 L 1727.5,774 L 1738.5,778 L 1760.5,782 L 1772.5,782 L 1784.5,785 L 1792.5,785 L 1794.5,784 L 1804.5,774 L 1809.5,767 L 1853.5,721 L 1861.5,711 L 1884.5,689 L 1893.5,678 L 1904.5,667 L 1904.5,666 L 1925.5,646 L 1936.5,632 L 1957.5,611 L 2000.5,563 L 2016.5,547 L 2021.5,540 L 2036.5,525 L 2061.5,496 L 2076.5,481 L 2101.5,453 L 2106.5,446 L 2121.5,431 L 2141.5,407 L 2153.5,395 L 2160.5,386 L 2172.5,374 L 2192.5,350 L 2204.5,338 L 2221.5,318 L 2233.5,306 L 2240.5,297 L 2265.5,271 L 2272.5,262 L 2283.5,251 L 2286.5,246 L 2286.5,242 L 2282.5,234 L 2267.5,212 L 2261.5,206 L 2257.5,200 Z M 2075.5,271 L 2059.5,262 L 2046.5,256 L 2017.5,247 L 2006.5,245 L 1996.5,245 L 1989.5,243 L 1969.5,241 L 1936.5,241 L 1918.5,242 L 1907.5,245 L 1900.5,246 L 1892.5,246 L 1859.5,255 L 1837.5,264 L 1819.5,273 L 1808.5,280 L 1787.5,296 L 1778.5,304 L 1765.5,318 L 1748.5,341 L 1740.5,354 L 1731.5,371 L 1722.5,392 L 1715.5,412 L 1714.5,420 L 1711.5,427 L 1707.5,443 L 1706.5,457 L 1704.5,463 L 1703.5,470 L 1703.5,513 L 1708.5,543 L 1716.5,569 L 1722.5,583 L 1727.5,591 L 1737.5,604 L 1749.5,616 L 1766.5,629 L 1785.5,639 L 1807.5,647 L 1819.5,648 L 1824.5,650 L 1830.5,651 L 1844.5,652 L 1879.5,652 L 1883.5,651 L 1891.5,643 L 1913.5,617 L 1922.5,608 L 1939.5,587 L 1959.5,567 L 1986.5,535 L 2004.5,515 L 2018.5,501 L 2027.5,490 L 2038.5,479 L 2049.5,465 L 2075.5,437 L 2087.5,422 L 2099.5,410 L 2108.5,400 L 2114.5,392 L 2128.5,378 L 2131.5,374 L 2132.5,371 L 2132.5,356 L 2131.5,351 L 2128.5,344 L 2127.5,337 L 2123.5,324 L 2117.5,313 L 2111.5,304 L 2102.5,293 L 2088.5,280 Z M 2299.5,270 L 2295.5,270 L 2275.5,292 L 2270.5,299 L 2263.5,306 L 2250.5,323 L 2234.5,340 L 2218.5,360 L 2203.5,376 L 2186.5,397 L 2168.5,416 L 2154.5,434 L 2139.5,450 L 2136.5,456 L 2136.5,464 L 2133.5,476 L 2131.5,493 L 2122.5,521 L 2117.5,531 L 2116.5,536 L 2102.5,561 L 2083.5,586 L 2064.5,605 L 2045.5,620 L 2031.5,629 L 2012.5,638 L 1987.5,647 L 1969.5,649 L 1961.5,652 L 1956.5,657 L 1946.5,670 L 1935.5,681 L 1928.5,690 L 1918.5,700 L 1902.5,718 L 1890.5,733 L 1876.5,747 L 1866.5,759 L 1850.5,775 L 1844.5,782 L 1844.5,787 L 1846.5,788 L 1914.5,788 L 1933.5,786 L 1952.5,786 L 1968.5,785 L 1983.5,782 L 1995.5,782 L 2022.5,777 L 2030.5,774 L 2036.5,774 L 2052.5,770 L 2059.5,767 L 2070.5,765 L 2084.5,759 L 2090.5,758 L 2098.5,755 L 2124.5,743 L 2147.5,731 L 2161.5,722 L 2164.5,719 L 2173.5,714 L 2200.5,693 L 2228.5,665 L 2243.5,647 L 2257.5,627 L 2265.5,614 L 2268.5,607 L 2274.5,598 L 2282.5,581 L 2284.5,574 L 2290.5,563 L 2297.5,545 L 2306.5,519 L 2307.5,511 L 2310.5,504 L 2314.5,487 L 2315.5,475 L 2319.5,459 L 2319.5,451 L 2322.5,438 L 2323.5,425 L 2323.5,362 L 2319.5,334 L 2311.5,300 L 2307.5,290 L 2306.5,283 L 2301.5,272 Z" fill="#FFC107" fill-rule="evenodd" />
  <path d="M 261.0,915 L 259.0,917 L 255.0,931 L 254.0,940 L 251.0,949 L 250.0,958 L 247.0,966 L 246.0,976 L 239.0,1002 L 238.0,1013 L 234.0,1030 L 231.0,1038 L 230.0,1049 L 227.0,1057 L 226.0,1066 L 223.0,1074 L 223.0,1080 L 220.0,1090 L 221.0,1099 L 223.0,1100 L 422.0,1100 L 424.0,1099 L 427.0,1096 L 430.0,1089 L 432.0,1073 L 431.0,1071 L 429.0,1070 L 285.0,1070 L 282.0,1069 L 280.0,1067 L 279.0,1065 L 279.0,1059 L 282.0,1050 L 282.0,1045 L 287.0,1025 L 289.0,1022 L 293.0,1020 L 326.0,1019 L 398.0,1020 L 423.0,1019 L 426.0,1017 L 430.0,1007 L 431.0,1001 L 431.0,994 L 430.0,992 L 427.0,990 L 301.0,990 L 296.0,986 L 296.0,982 L 298.0,977 L 299.0,968 L 302.0,960 L 303.0,951 L 306.0,946 L 310.0,944 L 346.0,943 L 453.0,944 L 458.0,940 L 460.0,936 L 464.0,921 L 464.0,917 L 463.0,915 L 461.0,914 L 263.0,914 Z M 688.0,918 L 686.0,930 L 683.0,939 L 682.0,948 L 679.0,956 L 678.0,961 L 678.0,967 L 675.0,976 L 675.0,981 L 671.0,993 L 670.0,1005 L 667.0,1013 L 666.0,1022 L 663.0,1031 L 662.0,1041 L 659.0,1049 L 658.0,1058 L 656.0,1062 L 654.0,1076 L 651.0,1085 L 650.0,1097 L 652.0,1099 L 654.0,1100 L 697.0,1100 L 701.0,1097 L 703.0,1091 L 703.0,1084 L 706.0,1071 L 710.0,1059 L 711.0,1053 L 711.0,1045 L 714.0,1036 L 715.0,1026 L 718.0,1018 L 719.0,1007 L 722.0,998 L 723.0,987 L 726.0,975 L 727.0,973 L 730.0,971 L 734.0,973 L 743.0,981 L 774.0,1013 L 861.0,1098 L 865.0,1100 L 906.0,1100 L 909.0,1098 L 911.0,1094 L 914.0,1083 L 914.0,1078 L 918.0,1066 L 919.0,1055 L 922.0,1046 L 923.0,1037 L 926.0,1029 L 927.0,1017 L 930.0,1008 L 931.0,998 L 934.0,989 L 935.0,978 L 938.0,969 L 939.0,960 L 942.0,952 L 943.0,941 L 946.0,932 L 946.0,927 L 947.0,922 L 948.0,921 L 948.0,918 L 945.0,914 L 905.0,914 L 902.0,915 L 898.0,918 L 895.0,926 L 894.0,938 L 891.0,946 L 891.0,953 L 888.0,959 L 887.0,963 L 886.0,975 L 885.0,980 L 883.0,984 L 882.0,993 L 879.0,1001 L 878.0,1012 L 875.0,1022 L 874.0,1032 L 871.0,1039 L 866.0,1040 L 832.0,1005 L 742.0,915 L 739.0,914 L 693.0,914 Z M 1205.0,915 L 1203.0,917 L 1200.0,925 L 1198.0,934 L 1198.0,940 L 1195.0,948 L 1194.0,956 L 1191.0,964 L 1190.0,976 L 1187.0,985 L 1186.0,995 L 1183.0,1003 L 1182.0,1014 L 1178.0,1031 L 1175.0,1039 L 1174.0,1049 L 1171.0,1058 L 1171.0,1063 L 1167.0,1075 L 1166.0,1087 L 1164.0,1091 L 1165.0,1099 L 1167.0,1100 L 1364.0,1100 L 1366.0,1099 L 1370.0,1094 L 1374.0,1078 L 1374.0,1074 L 1373.0,1072 L 1370.0,1070 L 1228.0,1070 L 1223.0,1066 L 1223.0,1056 L 1227.0,1039 L 1230.0,1032 L 1230.0,1028 L 1231.0,1025 L 1235.0,1021 L 1238.0,1020 L 1250.0,1019 L 1361.0,1020 L 1364.0,1019 L 1366.0,1017 L 1370.0,1006 L 1370.0,1001 L 1372.0,997 L 1372.0,993 L 1369.0,990 L 1245.0,990 L 1241.0,988 L 1239.0,983 L 1243.0,966 L 1246.0,958 L 1247.0,949 L 1251.0,944 L 1254.0,943 L 1394.0,943 L 1396.0,942 L 1399.0,938 L 1402.0,926 L 1402.0,922 L 1403.0,921 L 1403.0,918 L 1402.0,916 L 1399.0,914 L 1208.0,914 Z M 1639.0,917 L 1635.0,932 L 1634.0,941 L 1631.0,949 L 1630.0,960 L 1627.0,968 L 1626.0,977 L 1623.0,984 L 1622.0,995 L 1619.0,1004 L 1618.0,1013 L 1615.0,1021 L 1614.0,1031 L 1611.0,1040 L 1611.0,1045 L 1607.0,1057 L 1606.0,1069 L 1602.0,1086 L 1599.0,1093 L 1599.0,1096 L 1601.0,1099 L 1603.0,1100 L 1646.0,1100 L 1648.0,1099 L 1650.0,1097 L 1652.0,1093 L 1654.0,1086 L 1655.0,1075 L 1658.0,1066 L 1659.0,1057 L 1662.0,1049 L 1663.0,1038 L 1666.0,1033 L 1671.0,1031 L 1729.0,1031 L 1734.0,1033 L 1739.0,1037 L 1758.0,1060 L 1766.0,1071 L 1779.0,1085 L 1786.0,1094 L 1786.0,1095 L 1793.0,1100 L 1849.0,1100 L 1851.0,1098 L 1850.0,1094 L 1822.0,1063 L 1796.0,1036 L 1794.0,1033 L 1794.0,1030 L 1799.0,1026 L 1806.0,1025 L 1813.0,1022 L 1820.0,1021 L 1836.0,1013 L 1844.0,1007 L 1855.0,996 L 1862.0,983 L 1865.0,968 L 1865.0,957 L 1863.0,949 L 1860.0,943 L 1853.0,935 L 1852.0,935 L 1849.0,932 L 1843.0,928 L 1824.0,920 L 1813.0,917 L 1792.0,914 L 1643.0,914 Z M 1676.0,1001 L 1679.0,1002 L 1766.0,1002 L 1784.0,998 L 1792.0,995 L 1798.0,991 L 1806.0,983 L 1810.0,971 L 1810.0,966 L 1807.0,958 L 1799.0,950 L 1789.0,946 L 1768.0,943 L 1691.0,943 L 1688.0,944 L 1683.0,949 L 1682.0,953 L 1682.0,958 L 1679.0,966 L 1678.0,977 L 1675.0,985 L 1674.0,990 L 1674.0,999 Z M 2072.0,990 L 2070.0,996 L 2070.0,1001 L 2067.0,1010 L 2067.0,1031 L 2072.0,1049 L 2075.0,1055 L 2081.0,1064 L 2091.0,1074 L 2104.0,1083 L 2118.0,1090 L 2129.0,1094 L 2155.0,1101 L 2191.0,1103 L 2246.0,1101 L 2262.0,1097 L 2268.0,1097 L 2277.0,1094 L 2288.0,1093 L 2306.0,1087 L 2310.0,1083 L 2314.0,1061 L 2318.0,1049 L 2320.0,1034 L 2327.0,1009 L 2328.0,1001 L 2326.0,997 L 2324.0,996 L 2224.0,996 L 2222.0,997 L 2219.0,1000 L 2215.0,1012 L 2215.0,1020 L 2218.0,1023 L 2267.0,1022 L 2272.0,1026 L 2272.0,1031 L 2270.0,1044 L 2265.0,1062 L 2260.0,1067 L 2258.0,1068 L 2226.0,1073 L 2187.0,1073 L 2175.0,1070 L 2169.0,1070 L 2154.0,1065 L 2143.0,1059 L 2139.0,1056 L 2130.0,1047 L 2127.0,1043 L 2123.0,1034 L 2121.0,1024 L 2121.0,1010 L 2123.0,999 L 2129.0,983 L 2134.0,975 L 2141.0,967 L 2142.0,967 L 2146.0,963 L 2156.0,956 L 2168.0,950 L 2180.0,946 L 2198.0,942 L 2226.0,940 L 2260.0,941 L 2269.0,942 L 2283.0,945 L 2304.0,951 L 2315.0,956 L 2320.0,956 L 2323.0,954 L 2326.0,948 L 2330.0,937 L 2330.0,931 L 2329.0,928 L 2323.0,925 L 2300.0,918 L 2291.0,917 L 2282.0,914 L 2262.0,910 L 2244.0,909 L 2208.0,909 L 2196.0,910 L 2181.0,914 L 2175.0,914 L 2162.0,917 L 2138.0,926 L 2121.0,934 L 2109.0,942 L 2098.0,951 L 2087.0,963 L 2081.0,972 Z M 2602.0,1099 L 2604.0,1100 L 2646.0,1100 L 2650.0,1097 L 2654.0,1083 L 2655.0,1071 L 2658.0,1063 L 2659.0,1054 L 2662.0,1046 L 2664.0,1029 L 2666.0,1023 L 2669.0,1018 L 2679.0,1008 L 2695.0,995 L 2711.0,979 L 2738.0,956 L 2750.0,944 L 2769.0,928 L 2778.0,919 L 2779.0,917 L 2778.0,915 L 2729.0,914 L 2725.0,916 L 2691.0,947 L 2652.0,986 L 2649.0,988 L 2645.0,988 L 2639.0,982 L 2624.0,961 L 2618.0,951 L 2608.0,939 L 2592.0,916 L 2588.0,914 L 2538.0,914 L 2536.0,916 L 2536.0,918 L 2538.0,922 L 2546.0,931 L 2552.0,940 L 2561.0,950 L 2573.0,967 L 2590.0,987 L 2614.0,1020 L 2614.0,1032 L 2611.0,1041 L 2610.0,1050 L 2607.0,1058 L 2606.0,1070 L 2603.0,1079 L 2603.0,1084 L 2600.0,1093 L 2600.0,1096 Z M 226.5,1190 L 222.5,1195 L 222.5,1306 L 223.5,1308 L 226.5,1310 L 269.5,1310 L 288.5,1307 L 296.5,1303 L 304.5,1296 L 308.5,1294 L 313.5,1289 L 320.5,1276 L 324.5,1261 L 324.5,1234 L 319.5,1218 L 313.5,1209 L 302.5,1199 L 297.5,1196 L 286.5,1192 L 275.5,1190 Z M 238.5,1207 L 237.5,1210 L 236.5,1232 L 238.5,1270 L 237.5,1290 L 238.5,1292 L 243.5,1296 L 270.5,1296 L 276.5,1295 L 292.5,1289 L 301.5,1277 L 304.5,1271 L 306.5,1258 L 309.5,1250 L 309.5,1247 L 308.5,1246 L 307.5,1237 L 305.5,1229 L 301.5,1220 L 292.5,1211 L 278.5,1204 L 271.5,1203 L 244.5,1203 L 241.5,1204 Z M 385.5,1221 L 382.5,1222 L 377.5,1228 L 374.5,1229 L 362.5,1230 L 360.5,1231 L 355.5,1236 L 347.5,1250 L 345.5,1257 L 345.5,1277 L 347.5,1284 L 351.5,1293 L 356.5,1300 L 363.5,1306 L 374.5,1311 L 379.5,1312 L 397.5,1312 L 407.5,1310 L 419.5,1304 L 422.5,1300 L 422.5,1296 L 420.5,1293 L 418.5,1292 L 412.5,1292 L 403.5,1297 L 395.5,1299 L 384.5,1299 L 380.5,1298 L 374.5,1295 L 368.5,1290 L 368.5,1289 L 365.5,1286 L 362.5,1280 L 362.5,1274 L 364.5,1272 L 367.5,1271 L 423.5,1271 L 427.5,1267 L 427.5,1253 L 423.5,1240 L 421.5,1237 L 413.5,1229 L 409.5,1226 L 406.5,1225 L 402.5,1225 L 394.5,1221 Z M 363.5,1255 L 368.5,1259 L 408.5,1259 L 411.5,1257 L 412.5,1255 L 412.5,1252 L 408.5,1244 L 402.5,1238 L 393.5,1235 L 383.5,1235 L 374.5,1238 L 367.5,1244 L 363.5,1251 Z M 460.5,1224 L 457.5,1225 L 454.5,1228 L 452.5,1239 L 453.5,1305 L 454.5,1307 L 458.5,1310 L 464.5,1310 L 468.5,1306 L 468.5,1228 L 467.5,1226 L 463.5,1224 Z M 493.5,1225 L 492.5,1229 L 493.5,1231 L 517.5,1263 L 517.5,1269 L 512.5,1276 L 510.5,1281 L 502.5,1288 L 502.5,1289 L 492.5,1302 L 493.5,1309 L 495.5,1310 L 501.5,1310 L 504.5,1309 L 512.5,1300 L 517.5,1291 L 522.5,1285 L 527.5,1281 L 530.5,1281 L 532.5,1282 L 536.5,1286 L 543.5,1295 L 548.5,1303 L 554.5,1309 L 556.5,1310 L 565.5,1310 L 567.5,1309 L 568.5,1305 L 567.5,1303 L 550.5,1281 L 541.5,1268 L 541.5,1263 L 555.5,1244 L 560.5,1239 L 562.5,1234 L 566.5,1229 L 566.5,1225 L 564.5,1225 L 563.5,1224 L 556.5,1224 L 552.5,1226 L 548.5,1230 L 539.5,1243 L 531.5,1251 L 527.5,1250 L 522.5,1245 L 517.5,1237 L 511.5,1229 L 507.5,1225 L 504.5,1224 L 495.5,1224 Z M 601.5,1228 L 594.5,1234 L 589.5,1241 L 586.5,1247 L 584.5,1255 L 583.5,1264 L 583.5,1272 L 584.5,1279 L 587.5,1289 L 591.5,1296 L 600.5,1305 L 610.5,1310 L 618.5,1312 L 635.5,1312 L 645.5,1310 L 656.5,1304 L 659.5,1301 L 660.5,1298 L 659.5,1295 L 656.5,1292 L 653.5,1291 L 647.5,1295 L 634.5,1299 L 622.5,1299 L 618.5,1298 L 612.5,1295 L 604.5,1288 L 601.5,1282 L 601.5,1276 L 602.5,1273 L 606.5,1271 L 661.5,1271 L 665.5,1267 L 665.5,1256 L 663.5,1247 L 659.5,1239 L 648.5,1228 L 641.5,1224 L 630.5,1221 L 620.5,1221 L 612.5,1225 L 605.5,1226 Z M 601.5,1256 L 604.5,1259 L 611.5,1260 L 644.5,1259 L 647.5,1257 L 648.5,1255 L 648.5,1249 L 645.5,1243 L 638.5,1237 L 632.5,1235 L 619.5,1235 L 612.5,1237 L 605.5,1243 L 602.5,1247 L 601.5,1250 Z M 784.5,1221 L 781.5,1222 L 777.5,1225 L 770.5,1225 L 765.5,1227 L 758.5,1232 L 752.5,1238 L 745.5,1253 L 745.5,1259 L 746.5,1260 L 745.5,1282 L 749.5,1291 L 753.5,1297 L 760.5,1304 L 763.5,1306 L 772.5,1310 L 782.5,1312 L 794.5,1312 L 799.5,1311 L 810.5,1307 L 816.5,1303 L 824.5,1295 L 829.5,1286 L 832.5,1277 L 832.5,1255 L 830.5,1249 L 825.5,1240 L 820.5,1235 L 813.5,1233 L 811.5,1229 L 808.5,1226 L 804.5,1224 L 800.5,1224 L 793.5,1221 Z M 778.5,1236 L 772.5,1239 L 763.5,1248 L 761.5,1252 L 760.5,1257 L 760.5,1275 L 762.5,1282 L 764.5,1286 L 769.5,1292 L 770.5,1292 L 773.5,1295 L 779.5,1298 L 783.5,1299 L 791.5,1299 L 802.5,1296 L 812.5,1285 L 816.5,1276 L 817.5,1268 L 816.5,1259 L 814.5,1252 L 812.5,1248 L 807.5,1242 L 806.5,1242 L 803.5,1239 L 797.5,1236 L 792.5,1235 L 782.5,1235 Z M 945.5,1220 L 939.5,1221 L 928.5,1225 L 924.5,1227 L 920.5,1231 L 918.5,1235 L 914.5,1239 L 913.5,1241 L 913.5,1254 L 916.5,1260 L 921.5,1265 L 927.5,1268 L 936.5,1271 L 955.5,1275 L 960.5,1277 L 965.5,1282 L 966.5,1284 L 966.5,1289 L 965.5,1291 L 960.5,1296 L 952.5,1299 L 937.5,1299 L 930.5,1297 L 919.5,1291 L 916.5,1291 L 913.5,1293 L 911.5,1297 L 911.5,1300 L 915.5,1305 L 931.5,1311 L 937.5,1312 L 955.5,1312 L 963.5,1310 L 971.5,1306 L 976.5,1302 L 976.5,1301 L 979.5,1298 L 981.5,1293 L 982.5,1283 L 980.5,1276 L 974.5,1271 L 970.5,1266 L 967.5,1264 L 956.5,1260 L 941.5,1258 L 935.5,1255 L 929.5,1249 L 929.5,1243 L 930.5,1241 L 934.5,1237 L 940.5,1235 L 960.5,1235 L 962.5,1227 L 961.5,1223 L 955.5,1221 Z M 1040.5,1221 L 1031.5,1223 L 1021.5,1227 L 1018.5,1229 L 1008.5,1239 L 1001.5,1253 L 1000.5,1258 L 1000.5,1276 L 1001.5,1281 L 1006.5,1292 L 1010.5,1298 L 1018.5,1305 L 1026.5,1309 L 1032.5,1311 L 1042.5,1312 L 1055.5,1311 L 1068.5,1306 L 1071.5,1304 L 1080.5,1295 L 1085.5,1285 L 1088.5,1275 L 1088.5,1256 L 1084.5,1245 L 1079.5,1237 L 1069.5,1228 L 1063.5,1225 L 1057.5,1225 L 1049.5,1221 Z M 1027.5,1240 L 1022.5,1245 L 1018.5,1252 L 1016.5,1260 L 1016.5,1273 L 1017.5,1278 L 1021.5,1287 L 1029.5,1295 L 1032.5,1297 L 1037.5,1299 L 1050.5,1299 L 1059.5,1295 L 1067.5,1287 L 1070.5,1281 L 1072.5,1274 L 1072.5,1260 L 1071.5,1256 L 1067.5,1247 L 1059.5,1239 L 1053.5,1236 L 1049.5,1235 L 1039.5,1235 L 1034.5,1236 Z M 1117.5,1184 L 1115.5,1185 L 1113.5,1188 L 1112.5,1225 L 1112.5,1295 L 1114.5,1302 L 1116.5,1305 L 1122.5,1310 L 1125.5,1311 L 1139.5,1311 L 1144.5,1307 L 1145.5,1304 L 1144.5,1301 L 1142.5,1299 L 1139.5,1298 L 1135.5,1298 L 1133.5,1297 L 1129.5,1293 L 1127.5,1285 L 1128.5,1188 L 1127.5,1186 L 1124.5,1184 Z M 1232.5,1199 L 1228.5,1201 L 1226.5,1204 L 1226.5,1218 L 1225.5,1220 L 1221.5,1224 L 1215.5,1226 L 1211.5,1229 L 1211.5,1232 L 1212.5,1234 L 1216.5,1236 L 1220.5,1236 L 1222.5,1237 L 1226.5,1242 L 1226.5,1291 L 1227.5,1295 L 1230.5,1302 L 1236.5,1308 L 1242.5,1311 L 1247.5,1312 L 1257.5,1312 L 1262.5,1311 L 1267.5,1309 L 1270.5,1306 L 1270.5,1301 L 1269.5,1299 L 1266.5,1297 L 1262.5,1297 L 1257.5,1299 L 1249.5,1298 L 1243.5,1293 L 1241.5,1288 L 1241.5,1242 L 1244.5,1237 L 1249.5,1235 L 1265.5,1235 L 1267.5,1234 L 1268.5,1232 L 1268.5,1227 L 1264.5,1224 L 1259.5,1224 L 1256.5,1225 L 1252.5,1228 L 1245.5,1228 L 1243.5,1226 L 1241.5,1219 L 1241.5,1204 L 1238.5,1200 L 1236.5,1199 Z M 1338.5,1222 L 1330.5,1221 L 1321.5,1224 L 1315.5,1227 L 1310.5,1231 L 1306.5,1230 L 1303.5,1226 L 1298.5,1227 L 1298.5,1230 L 1293.5,1235 L 1292.5,1238 L 1292.5,1306 L 1297.5,1310 L 1301.5,1310 L 1304.5,1309 L 1307.5,1305 L 1307.5,1262 L 1309.5,1252 L 1312.5,1246 L 1319.5,1239 L 1326.5,1236 L 1336.5,1236 L 1339.5,1235 L 1341.5,1233 L 1342.5,1231 L 1342.5,1225 Z M 1360.5,1230 L 1358.5,1234 L 1358.5,1237 L 1359.5,1240 L 1361.5,1242 L 1365.5,1242 L 1373.5,1237 L 1380.5,1235 L 1395.5,1235 L 1401.5,1237 L 1408.5,1244 L 1410.5,1250 L 1410.5,1253 L 1409.5,1256 L 1406.5,1259 L 1403.5,1260 L 1380.5,1260 L 1367.5,1264 L 1364.5,1266 L 1359.5,1271 L 1354.5,1279 L 1353.5,1282 L 1353.5,1293 L 1357.5,1301 L 1365.5,1308 L 1372.5,1311 L 1377.5,1312 L 1389.5,1312 L 1394.5,1311 L 1410.5,1303 L 1415.5,1307 L 1422.5,1311 L 1431.5,1311 L 1433.5,1310 L 1435.5,1308 L 1436.5,1305 L 1435.5,1302 L 1426.5,1294 L 1425.5,1291 L 1425.5,1247 L 1424.5,1242 L 1421.5,1236 L 1418.5,1232 L 1411.5,1226 L 1395.5,1221 L 1384.5,1221 L 1372.5,1224 Z M 1386.5,1271 L 1381.5,1272 L 1375.5,1275 L 1370.5,1280 L 1369.5,1282 L 1369.5,1289 L 1370.5,1291 L 1376.5,1297 L 1381.5,1299 L 1392.5,1299 L 1399.5,1296 L 1407.5,1289 L 1410.5,1281 L 1410.5,1277 L 1409.5,1275 L 1404.5,1271 Z M 1465.5,1185 L 1458.5,1188 L 1456.5,1191 L 1457.5,1236 L 1456.5,1237 L 1456.5,1262 L 1457.5,1306 L 1458.5,1308 L 1461.5,1310 L 1467.5,1310 L 1469.5,1309 L 1473.5,1304 L 1478.5,1304 L 1488.5,1310 L 1495.5,1312 L 1507.5,1312 L 1512.5,1311 L 1519.5,1308 L 1525.5,1304 L 1532.5,1297 L 1536.5,1290 L 1540.5,1277 L 1540.5,1257 L 1536.5,1243 L 1533.5,1238 L 1524.5,1229 L 1520.5,1226 L 1516.5,1224 L 1506.5,1221 L 1496.5,1221 L 1486.5,1224 L 1478.5,1229 L 1474.5,1229 L 1472.5,1227 L 1472.5,1189 L 1469.5,1185 Z M 1488.5,1236 L 1484.5,1238 L 1476.5,1246 L 1474.5,1250 L 1472.5,1257 L 1472.5,1278 L 1473.5,1282 L 1476.5,1288 L 1481.5,1293 L 1487.5,1297 L 1493.5,1299 L 1503.5,1299 L 1510.5,1296 L 1514.5,1293 L 1519.5,1287 L 1521.5,1283 L 1524.5,1271 L 1524.5,1262 L 1520.5,1248 L 1512.5,1239 L 1507.5,1236 L 1502.5,1235 L 1493.5,1235 Z M 1568.5,1228 L 1565.5,1232 L 1565.5,1236 L 1566.5,1238 L 1570.5,1241 L 1575.5,1240 L 1583.5,1236 L 1588.5,1235 L 1600.5,1235 L 1608.5,1238 L 1614.5,1244 L 1616.5,1249 L 1616.5,1253 L 1615.5,1255 L 1611.5,1259 L 1600.5,1262 L 1600.5,1268 L 1604.5,1271 L 1610.5,1271 L 1612.5,1272 L 1616.5,1277 L 1616.5,1281 L 1614.5,1287 L 1606.5,1295 L 1603.5,1297 L 1597.5,1299 L 1587.5,1299 L 1580.5,1296 L 1577.5,1293 L 1575.5,1289 L 1575.5,1281 L 1577.5,1279 L 1577.5,1278 L 1582.5,1274 L 1583.5,1272 L 1582.5,1268 L 1583.5,1262 L 1575.5,1263 L 1568.5,1267 L 1562.5,1273 L 1559.5,1281 L 1559.5,1292 L 1562.5,1301 L 1568.5,1307 L 1576.5,1311 L 1581.5,1312 L 1596.5,1312 L 1600.5,1311 L 1612.5,1304 L 1618.5,1304 L 1624.5,1309 L 1629.5,1311 L 1636.5,1311 L 1638.5,1310 L 1640.5,1307 L 1640.5,1302 L 1633.5,1296 L 1631.5,1291 L 1631.5,1246 L 1630.5,1242 L 1625.5,1233 L 1620.5,1228 L 1615.5,1225 L 1602.5,1221 L 1589.5,1221 L 1576.5,1224 Z M 1667.5,1184 L 1665.5,1185 L 1663.5,1188 L 1662.5,1209 L 1663.5,1298 L 1666.5,1305 L 1673.5,1310 L 1676.5,1311 L 1690.5,1311 L 1694.5,1308 L 1694.5,1302 L 1691.5,1299 L 1683.5,1297 L 1679.5,1293 L 1677.5,1288 L 1677.5,1188 L 1676.5,1186 L 1673.5,1184 Z M 1721.5,1185 L 1717.5,1190 L 1716.5,1197 L 1716.5,1263 L 1717.5,1306 L 1718.5,1308 L 1722.5,1310 L 1725.5,1310 L 1728.5,1309 L 1731.5,1305 L 1731.5,1259 L 1732.5,1254 L 1737.5,1245 L 1744.5,1238 L 1748.5,1236 L 1752.5,1235 L 1763.5,1235 L 1769.5,1237 L 1775.5,1243 L 1777.5,1247 L 1779.5,1256 L 1779.5,1306 L 1780.5,1308 L 1783.5,1310 L 1790.5,1310 L 1794.5,1305 L 1794.5,1267 L 1793.5,1246 L 1791.5,1238 L 1780.5,1226 L 1776.5,1224 L 1765.5,1221 L 1758.5,1221 L 1753.5,1223 L 1749.5,1228 L 1742.5,1227 L 1739.5,1229 L 1735.5,1230 L 1731.5,1225 L 1731.5,1187 L 1727.5,1184 Z M 1828.5,1228 L 1825.5,1231 L 1825.5,1238 L 1826.5,1240 L 1828.5,1241 L 1832.5,1241 L 1839.5,1237 L 1846.5,1235 L 1862.5,1235 L 1867.5,1237 L 1873.5,1243 L 1875.5,1247 L 1876.5,1253 L 1875.5,1256 L 1872.5,1259 L 1869.5,1260 L 1844.5,1260 L 1837.5,1262 L 1829.5,1266 L 1822.5,1273 L 1818.5,1283 L 1818.5,1290 L 1819.5,1294 L 1822.5,1300 L 1825.5,1304 L 1829.5,1307 L 1835.5,1310 L 1844.5,1312 L 1858.5,1311 L 1866.5,1308 L 1874.5,1303 L 1878.5,1304 L 1883.5,1309 L 1887.5,1311 L 1897.5,1311 L 1899.5,1310 L 1901.5,1308 L 1901.5,1302 L 1899.5,1300 L 1896.5,1299 L 1892.5,1295 L 1890.5,1289 L 1890.5,1246 L 1889.5,1241 L 1886.5,1234 L 1880.5,1229 L 1875.5,1227 L 1871.5,1227 L 1866.5,1223 L 1861.5,1221 L 1850.5,1221 L 1836.5,1224 Z M 1870.5,1271 L 1853.5,1271 L 1843.5,1274 L 1836.5,1280 L 1835.5,1282 L 1835.5,1289 L 1837.5,1293 L 1842.5,1297 L 1846.5,1299 L 1851.5,1300 L 1858.5,1299 L 1863.5,1297 L 1866.5,1295 L 1873.5,1288 L 1876.5,1281 L 1876.5,1276 L 1873.5,1272 Z M 1968.5,1222 L 1965.5,1222 L 1964.5,1221 L 1957.5,1222 L 1951.5,1224 L 1941.5,1231 L 1939.5,1231 L 1936.5,1228 L 1936.5,1227 L 1932.5,1224 L 1927.5,1224 L 1925.5,1225 L 1923.5,1228 L 1923.5,1306 L 1924.5,1308 L 1927.5,1310 L 1933.5,1310 L 1935.5,1309 L 1937.5,1306 L 1937.5,1282 L 1938.5,1260 L 1940.5,1252 L 1944.5,1245 L 1950.5,1239 L 1958.5,1236 L 1968.5,1236 L 1971.5,1234 L 1972.5,1232 L 1972.5,1226 L 1971.5,1224 Z M 2114.5,1229 L 2108.5,1226 L 2103.5,1225 L 2096.5,1221 L 2085.5,1221 L 2081.5,1222 L 2072.5,1226 L 2067.5,1230 L 2063.5,1230 L 2058.5,1225 L 2056.5,1224 L 2050.5,1224 L 2047.5,1226 L 2046.5,1228 L 2045.5,1261 L 2047.5,1266 L 2051.5,1267 L 2053.5,1269 L 2052.5,1271 L 2050.5,1273 L 2049.5,1273 L 2046.5,1277 L 2046.5,1343 L 2048.5,1346 L 2050.5,1347 L 2057.5,1347 L 2059.5,1346 L 2061.5,1343 L 2060.5,1317 L 2061.5,1308 L 2064.5,1304 L 2066.5,1304 L 2074.5,1309 L 2084.5,1312 L 2097.5,1312 L 2102.5,1311 L 2111.5,1307 L 2114.5,1304 L 2113.5,1300 L 2105.5,1297 L 2092.5,1299 L 2084.5,1299 L 2077.5,1297 L 2073.5,1295 L 2065.5,1287 L 2063.5,1283 L 2061.5,1276 L 2060.5,1260 L 2065.5,1247 L 2074.5,1238 L 2084.5,1235 L 2090.5,1235 L 2098.5,1237 L 2104.5,1241 L 2110.5,1248 L 2113.5,1256 L 2114.5,1265 L 2114.5,1286 L 2118.5,1287 L 2123.5,1291 L 2126.5,1288 L 2128.5,1283 L 2129.5,1273 L 2129.5,1254 L 2128.5,1249 L 2125.5,1242 L 2121.5,1236 Z M 2185.5,1221 L 2174.5,1224 L 2166.5,1228 L 2156.5,1238 L 2151.5,1247 L 2148.5,1256 L 2147.5,1265 L 2148.5,1278 L 2150.5,1285 L 2154.5,1294 L 2156.5,1297 L 2163.5,1304 L 2172.5,1309 L 2178.5,1311 L 2184.5,1312 L 2197.5,1312 L 2203.5,1311 L 2215.5,1306 L 2218.5,1304 L 2226.5,1296 L 2230.5,1290 L 2233.5,1282 L 2234.5,1276 L 2234.5,1259 L 2231.5,1245 L 2227.5,1239 L 2218.5,1230 L 2207.5,1224 L 2197.5,1221 Z M 2177.5,1238 L 2170.5,1244 L 2165.5,1253 L 2164.5,1258 L 2164.5,1275 L 2165.5,1280 L 2169.5,1288 L 2174.5,1293 L 2183.5,1298 L 2187.5,1299 L 2195.5,1299 L 2199.5,1298 L 2205.5,1295 L 2214.5,1286 L 2216.5,1282 L 2218.5,1272 L 2218.5,1260 L 2217.5,1254 L 2214.5,1247 L 2206.5,1239 L 2200.5,1236 L 2195.5,1235 L 2186.5,1235 Z M 2303.5,1223 L 2299.5,1224 L 2297.5,1227 L 2294.5,1227 L 2291.5,1225 L 2286.5,1225 L 2277.5,1231 L 2275.5,1231 L 2272.5,1228 L 2272.5,1227 L 2268.5,1224 L 2262.5,1224 L 2258.5,1227 L 2257.5,1268 L 2258.5,1306 L 2262.5,1310 L 2269.5,1310 L 2273.5,1306 L 2273.5,1258 L 2275.5,1251 L 2278.5,1245 L 2285.5,1239 L 2293.5,1236 L 2303.5,1236 L 2305.5,1234 L 2307.5,1229 L 2306.5,1225 Z M 2372.5,1224 L 2368.5,1226 L 2368.5,1230 L 2370.5,1237 L 2374.5,1244 L 2378.5,1259 L 2383.5,1268 L 2385.5,1276 L 2389.5,1285 L 2393.5,1291 L 2393.5,1294 L 2395.5,1298 L 2398.5,1298 L 2407.5,1290 L 2407.5,1287 L 2404.5,1284 L 2401.5,1278 L 2392.5,1250 L 2384.5,1236 L 2382.5,1228 L 2377.5,1224 Z M 2446.5,1224 L 2438.5,1224 L 2434.5,1227 L 2426.5,1246 L 2424.5,1254 L 2418.5,1267 L 2418.5,1272 L 2422.5,1276 L 2422.5,1279 L 2418.5,1283 L 2418.5,1286 L 2420.5,1291 L 2422.5,1292 L 2424.5,1290 L 2426.5,1283 L 2431.5,1275 L 2447.5,1236 L 2449.5,1230 L 2449.5,1227 L 2448.5,1225 Z M 2498.5,1221 L 2486.5,1225 L 2477.5,1230 L 2469.5,1238 L 2467.5,1241 L 2465.5,1246 L 2465.5,1249 L 2471.5,1257 L 2471.5,1262 L 2468.5,1265 L 2465.5,1266 L 2463.5,1268 L 2462.5,1270 L 2462.5,1280 L 2465.5,1289 L 2471.5,1298 L 2480.5,1306 L 2491.5,1311 L 2497.5,1312 L 2511.5,1312 L 2520.5,1310 L 2528.5,1306 L 2540.5,1295 L 2544.5,1288 L 2546.5,1282 L 2548.5,1272 L 2548.5,1264 L 2544.5,1246 L 2540.5,1239 L 2533.5,1231 L 2527.5,1227 L 2518.5,1223 L 2510.5,1221 Z M 2498.5,1235 L 2490.5,1238 L 2482.5,1246 L 2479.5,1252 L 2477.5,1259 L 2474.5,1264 L 2474.5,1266 L 2477.5,1272 L 2478.5,1278 L 2481.5,1286 L 2492.5,1298 L 2497.5,1301 L 2501.5,1301 L 2505.5,1299 L 2513.5,1298 L 2522.5,1295 L 2524.5,1293 L 2528.5,1285 L 2532.5,1273 L 2532.5,1261 L 2529.5,1250 L 2527.5,1246 L 2520.5,1239 L 2514.5,1236 L 2509.5,1235 Z M 2603.5,1221 L 2592.5,1224 L 2581.5,1230 L 2572.5,1239 L 2568.5,1246 L 2565.5,1257 L 2566.5,1261 L 2568.5,1264 L 2568.5,1266 L 2565.5,1273 L 2565.5,1279 L 2571.5,1294 L 2574.5,1298 L 2578.5,1300 L 2582.5,1305 L 2589.5,1309 L 2595.5,1311 L 2602.5,1312 L 2612.5,1312 L 2619.5,1311 L 2631.5,1306 L 2638.5,1300 L 2640.5,1295 L 2639.5,1293 L 2636.5,1290 L 2634.5,1289 L 2631.5,1289 L 2628.5,1290 L 2619.5,1297 L 2613.5,1299 L 2609.5,1299 L 2605.5,1301 L 2601.5,1301 L 2598.5,1299 L 2586.5,1300 L 2582.5,1298 L 2582.5,1295 L 2585.5,1291 L 2585.5,1286 L 2582.5,1280 L 2580.5,1272 L 2580.5,1262 L 2582.5,1254 L 2585.5,1247 L 2594.5,1238 L 2598.5,1236 L 2603.5,1235 L 2612.5,1235 L 2621.5,1238 L 2629.5,1244 L 2634.5,1244 L 2636.5,1243 L 2638.5,1241 L 2639.5,1237 L 2638.5,1235 L 2628.5,1231 L 2625.5,1229 L 2619.5,1223 L 2614.5,1221 Z M 2693.5,1221 L 2683.5,1224 L 2674.5,1229 L 2672.5,1231 L 2670.5,1235 L 2664.5,1241 L 2662.5,1245 L 2662.5,1248 L 2658.5,1254 L 2657.5,1257 L 2657.5,1278 L 2659.5,1285 L 2663.5,1293 L 2669.5,1301 L 2675.5,1306 L 2684.5,1310 L 2692.5,1312 L 2707.5,1312 L 2713.5,1311 L 2727.5,1305 L 2731.5,1301 L 2731.5,1295 L 2728.5,1292 L 2726.5,1291 L 2723.5,1291 L 2713.5,1297 L 2706.5,1299 L 2695.5,1299 L 2691.5,1298 L 2683.5,1293 L 2678.5,1288 L 2674.5,1282 L 2673.5,1279 L 2673.5,1275 L 2678.5,1271 L 2731.5,1271 L 2735.5,1269 L 2737.5,1264 L 2737.5,1254 L 2736.5,1249 L 2733.5,1242 L 2729.5,1236 L 2724.5,1232 L 2721.5,1231 L 2713.5,1224 L 2704.5,1221 Z M 2674.5,1255 L 2679.5,1259 L 2717.5,1259 L 2721.5,1255 L 2721.5,1251 L 2718.5,1244 L 2712.5,1238 L 2705.5,1235 L 2692.5,1235 L 2685.5,1238 L 2679.5,1243 L 2674.5,1252 Z M 2675.5,1206 L 2675.5,1209 L 2677.5,1211 L 2681.5,1211 L 2685.5,1209 L 2693.5,1200 L 2695.5,1199 L 2700.5,1199 L 2710.5,1209 L 2714.5,1211 L 2718.5,1211 L 2720.5,1209 L 2720.5,1205 L 2709.5,1191 L 2703.5,1185 L 2701.5,1184 L 2693.5,1184 L 2691.5,1185 L 2688.5,1188 L 2685.5,1194 L 2678.5,1201 Z M 2765.5,1292 L 2757.5,1300 L 2757.5,1305 L 2760.5,1308 L 2764.5,1310 L 2770.5,1310 L 2772.5,1309 L 2776.5,1304 L 2776.5,1297 L 2775.5,1295 L 2771.5,1292 Z" fill="#FFFFFF" fill-rule="evenodd" />
</svg>